<?xml version="1.0" encoding="utf-8"?>
<!-- Generator: Adobe Illustrator 28.3.0, SVG Export Plug-In . SVG Version: 6.00 Build 0)  -->
<svg version="1.1" id="Capa_1" xmlns="http://www.w3.org/2000/svg" xmlns:xlink="http://www.w3.org/1999/xlink" x="0px" y="0px"
	 width="200px" height="200px" viewBox="0 0 200 200" style="enable-background:new 0 0 200 200;" xml:space="preserve">
<path d="M130.9,161.2L100,120.7l-30.9,40.6c-1.3,1.7-3.1,2.5-4.9,2.5c-1.5,0-3.1-0.6-4.3-1.8c-2.7-2.7-3-7.5-0.6-10.6l35.8-47
	c0.2-0.3,0.5-0.6,0.7-0.8c0.2-0.2,0.5-0.4,0.8-0.6c0.4-0.3,0.8-0.6,1.3-0.7c0.3-0.1,0.7-0.2,1-0.3c0.4-0.1,0.8-0.1,1.2-0.1
	c0.4,0,0.8,0,1.2,0.1c0.3,0.1,0.6,0.1,0.9,0.2l0.4,0.2c0.3,0.1,0.5,0.3,0.8,0.5l0.2,0.1c0.3,0.2,0.6,0.5,0.9,0.8
	c0.2,0.2,0.4,0.4,0.5,0.6c0.1,0,0.1,0.1,0.1,0.1l35.8,47c2.4,3.1,2.1,7.8-0.6,10.5c-1.2,1.3-2.8,1.9-4.3,1.9
	C134,163.7,132.2,162.9,130.9,161.2z"/>
<path d="M40.9,110l51.5-67.5l0.5-0.7c0.7-0.9,1.5-1.7,2.4-2.3c0.6-0.4,1.2-0.7,1.8-0.9c1-0.3,1.9-0.5,2.9-0.5h0.4c0.1,0,0.3,0,0.4,0
	c0.3,0,0.5,0.1,0.8,0.1l0.9,0.2c0.5,0.2,1.1,0.4,1.6,0.7c0.4,0.2,0.8,0.6,1.3,0.9c0.2,0.2,0.4,0.4,0.7,0.6c0.1,0.1,0.2,0.1,0.2,0.2
	c0.1,0.1,0.2,0.2,0.2,0.3c0.2,0.2,0.4,0.4,0.5,0.6c0.1,0,0.1,0.1,0.2,0.1l52,68.2c3.4,4.5,3.1,11.4-0.9,15.3
	c-1.8,1.8-4.1,2.7-6.3,2.7c-2.6,0-5.3-1.2-7.1-3.7L100,65.5l-44.9,58.9c-1.9,2.4-4.5,3.7-7.2,3.7c-2.2,0-4.4-0.9-6.2-2.7
	C37.8,121.4,37.4,114.5,40.9,110z"/>
</svg>
