<?xml version="1.0" encoding="UTF-8"?><svg id="uuid-a0a6c5fd-94dc-4b3b-a766-6c8340c5438d" xmlns="http://www.w3.org/2000/svg" width="200" height="200" viewBox="0 0 200 200"><defs><style>.uuid-fa4a74e7-8159-4aa6-bcb0-b26919575cef{fill:#000;stroke-width:0px;}</style></defs><path class="uuid-fa4a74e7-8159-4aa6-bcb0-b26919575cef" d="M130.92,161.17l-30.92-40.52-30.92,40.56c-1.27,1.69-3.08,2.53-4.89,2.53-1.54,0-3.09-.6-4.32-1.84-2.69-2.72-2.97-7.47-.61-10.58l35.81-46.96c.22-.27.46-.55.7-.79s.48-.45.75-.63c.43-.3.85-.55,1.3-.73.34-.12.7-.24,1.03-.3.39-.09.79-.12,1.15-.12.39,0,.76.03,1.15.12.3.06.57.12.87.24l.37.15c.27.12.54.28.81.46l.21.12c.31.21.61.48.88.75.18.18.36.4.51.58.07.03.1.09.13.12l35.81,46.99c2.36,3.11,2.08,7.83-.61,10.55-1.23,1.27-2.78,1.87-4.29,1.87-1.84,0-3.65-.87-4.92-2.57Z"/><path class="uuid-fa4a74e7-8159-4aa6-bcb0-b26919575cef" d="M40.86,110.04l51.49-67.51.52-.7c.69-.94,1.51-1.69,2.39-2.27.57-.39,1.2-.69,1.81-.93.97-.34,1.93-.52,2.93-.52h.42c.12,0,.28.03.4.03.27.03.51.06.75.12l.91.22c.54.18,1.06.39,1.57.66.45.24.85.55,1.27.85.21.18.42.39.66.6.06.06.16.12.25.21.09.09.15.18.24.28.18.18.36.36.51.57.06.03.12.09.15.15l52.01,68.21c3.45,4.53,3.06,11.39-.87,15.35-1.82,1.82-4.05,2.69-6.26,2.69-2.63,0-5.26-1.24-7.13-3.72l-44.88-58.84-44.88,58.88c-1.87,2.44-4.5,3.71-7.16,3.71-2.21,0-4.41-.87-6.23-2.69-3.93-3.96-4.32-10.85-.87-15.35Z"/></svg>